<?xml version="1.0" encoding="UTF-8"?>
<svg version="1.1" xmlns="http://www.w3.org/2000/svg" width="450" height="82">
<path d="M0 0 C148.5 0 297 0 450 0 C450 27.06 450 54.12 450 82 C301.5 82 153 82 0 82 C0 54.94 0 27.88 0 0 Z " fill="#0A0A0A" transform="translate(0,0)"/>
<path d="M0 0 C4.12437834 3.82259456 6.76288986 6.95495933 7.0625 12.6875 C6.75276541 18.6224144 4.90303044 23.83765222 0.84375 28.23828125 C-4.8502781 33.29293755 -9.64544923 33.83054487 -17.1875 33.796875 C-21.36466746 33.25464653 -23.34622961 31.90709037 -26.265625 28.98046875 C-29.6855183 24.29521493 -28.83871932 17.87535216 -28.4375 12.375 C-26.4385653 6.58861009 -22.79799772 3.00486747 -17.8125 -0.4375 C-11.74246524 -2.57325297 -5.85762993 -2.76906142 0 0 Z " fill="#F4F4F4" transform="translate(220.4375,22.625)"/>
<path d="M0 0 C1.37478516 0.01740234 1.37478516 0.01740234 2.77734375 0.03515625 C3.69644531 0.04417969 4.61554688 0.05320312 5.5625 0.0625 C6.27277344 0.07410156 6.98304688 0.08570312 7.71484375 0.09765625 C7.71484375 0.75765625 7.71484375 1.41765625 7.71484375 2.09765625 C8.23046875 1.76765625 8.74609375 1.43765625 9.27734375 1.09765625 C12.59732163 -0.26438596 15.15670623 -0.2200346 18.71484375 0.09765625 C21.15234375 1.59765625 21.15234375 1.59765625 22.71484375 3.09765625 C23.31296875 2.78828125 23.91109375 2.47890625 24.52734375 2.16015625 C28.74302192 0.11254114 32.04929778 -0.30454599 36.71484375 0.09765625 C39.46813396 1.8932803 41.24111836 3.15020547 42.71484375 6.09765625 C42.57478693 13.60685669 41.56216142 20.83154009 39.71484375 28.09765625 C36.41484375 28.09765625 33.11484375 28.09765625 29.71484375 28.09765625 C29.85679139 26.03488518 30.00356591 23.97244594 30.15234375 21.91015625 C30.23355469 20.76160156 30.31476563 19.61304687 30.3984375 18.4296875 C30.66888187 15.58167454 31.09006122 12.88555143 31.71484375 10.09765625 C29.29838593 9.93078177 29.29838593 9.93078177 26.71484375 10.09765625 C23.83263315 12.97986685 23.74593765 16.34634638 23.08984375 20.22265625 C22.95578125 20.97675781 22.82171875 21.73085938 22.68359375 22.5078125 C22.35361146 24.36985543 22.03330302 26.233608 21.71484375 28.09765625 C18.08484375 28.09765625 14.45484375 28.09765625 10.71484375 28.09765625 C11.37484375 22.48765625 12.03484375 16.87765625 12.71484375 11.09765625 C8.96792928 9.69995041 8.96792928 9.69995041 6.71484375 11.09765625 C6.10157515 13.7737374 5.5915322 16.3928131 5.15234375 19.09765625 C3.83171682 26.98078318 3.83171682 26.98078318 2.71484375 28.09765625 C1.02875409 28.16971136 -0.66016284 28.18151693 -2.34765625 28.16015625 C-3.26675781 28.15113281 -4.18585938 28.14210938 -5.1328125 28.1328125 C-5.84308594 28.12121094 -6.55335938 28.10960938 -7.28515625 28.09765625 C-6.87794773 21.46998654 -5.99956615 14.99435179 -4.78515625 8.47265625 C-4.65455811 7.76173828 -4.52395996 7.05082031 -4.3894043 6.31835938 C-3.20372567 0.13691135 -3.20372567 0.13691135 0 0 Z " fill="#F2F2F2" transform="translate(302.28515625,27.90234375)"/>
<path d="M0 0 C3.3 0 6.6 0 10 0 C10.33 0.66 10.66 1.32 11 2 C11.99 1.34 12.98 0.68 14 0 C20.99656881 -0.78993519 20.99656881 -0.78993519 24.9375 2.3125 C28.17372662 6.52940136 28.42796493 9.77882781 28 15 C26.11247075 20.6841595 23.22028126 24.90649999 18 28 C14.61675803 28.44151564 11.38338654 28.44602082 8 28 C7.67 27.67 7.34 27.34 7 27 C5.79534844 31.65798604 4.71452588 36.23649415 4 41 C0.37 41 -3.26 41 -7 41 C-6.30818333 32.75323085 -4.98284285 24.70118889 -3.5 16.5625 C-3.27441406 15.29728516 -3.04882812 14.03207031 -2.81640625 12.72851562 C-1.13649644 3.40948933 -1.13649644 3.40948933 0 0 Z " fill="#F2F2F2" transform="translate(232,28)"/>
<path d="M0 0 C2.86492165 2.15564493 3.88568844 3.88644554 4.796875 7.3359375 C4.838125 8.2228125 4.879375 9.1096875 4.921875 10.0234375 C2.94278102 10.05030303 0.96358529 10.06977125 -1.015625 10.0859375 C-2.11777344 10.09753906 -3.21992187 10.10914063 -4.35546875 10.12109375 C-7.078125 10.0234375 -7.078125 10.0234375 -8.078125 9.0234375 C-11.57891861 8.63446043 -13.43260744 8.58727699 -16.390625 10.5859375 C-18.60711629 13.78753604 -19.00771873 16.15109256 -19.078125 20.0234375 C-18.16145833 22.10677083 -18.16145833 22.10677083 -16.078125 23.0234375 C-12.98311292 23.27609155 -10.87682527 23.42278763 -8.078125 22.0234375 C-10.388125 21.3634375 -12.698125 20.7034375 -15.078125 20.0234375 C-14.748125 17.7134375 -14.418125 15.4034375 -14.078125 13.0234375 C-7.808125 13.0234375 -1.538125 13.0234375 4.921875 13.0234375 C3.85044643 23.87165179 3.85044643 23.87165179 -0.953125 28.0859375 C-7.47914879 33.16035524 -12.86311024 33.91422223 -21.078125 33.0234375 C-25.53223864 30.9135942 -28.27103949 28.64154492 -30.078125 24.0234375 C-31.02717448 17.23949121 -30.16547415 11.59274949 -26.078125 6.0234375 C-19.01500162 -1.50832914 -9.89569833 -4.65023418 0 0 Z " fill="#9C9C9C" transform="translate(125.078125,22.9765625)"/>
<path d="M0 0 C0.99 0.66 1.98 1.32 3 2 C3.33 1.34 3.66 0.68 4 0 C7.3 0 10.6 0 14 0 C14.27501507 6.19643329 13.22632202 11.87632056 12 17.9375 C11.71382812 19.3925293 11.71382812 19.3925293 11.421875 20.87695312 C10.95379333 23.2524676 10.47770525 25.62640206 10 28 C6.7 28 3.4 28 0 28 C0 27.34 0 26.68 0 26 C-0.99 26.66 -1.98 27.32 -3 28 C-6.38931519 28.53753747 -9.61270886 28.56084657 -13 28 C-16.52241831 24.73531962 -17.90300606 22.12512968 -18.3125 17.375 C-18.24269431 12.57585872 -16.70805306 8.92711231 -14 5 C-9.25914778 0.59778009 -6.47162054 -0.34061161 0 0 Z " fill="#9C9C9C" transform="translate(148,28)"/>
<path d="M0 0 C3.63 0 7.26 0 11 0 C10.67 3.3 10.34 6.6 10 10 C11.32 9.34 12.64 8.68 14 8 C18.2685337 7.45673207 20.28076837 7.54091598 23.9375 9.875 C27.5240968 15.30923757 26.51569707 20.34533212 25.3125 26.5390625 C24.5942572 29.70899948 23.82761406 32.8570371 23 36 C19.7 36 16.4 36 13 36 C13.33 30.06 13.66 24.12 14 18 C12.35 18.33 10.7 18.66 9 19 C7.29100343 24.61527443 6.10569838 30.23457274 5 36 C1.37 36 -2.26 36 -6 36 C-4.4332215 23.91931316 -2.22996432 11.97252691 0 0 Z " fill="#F2F2F2" transform="translate(66,20)"/>
<path d="M0 0 C0.91644287 0.00523682 1.83288574 0.01047363 2.77709961 0.01586914 C3.76645508 0.0190918 4.75581055 0.02231445 5.77514648 0.02563477 C6.81606445 0.03401367 7.85698242 0.04239258 8.92944336 0.05102539 C10.49662109 0.05779297 10.49662109 0.05779297 12.09545898 0.06469727 C14.68600996 0.07652627 17.27644895 0.0930085 19.86694336 0.11352539 C19.53694336 3.08352539 19.20694336 6.05352539 18.86694336 9.11352539 C14.90694336 9.11352539 10.94694336 9.11352539 6.86694336 9.11352539 C6.53694336 10.43352539 6.20694336 11.75352539 5.86694336 13.11352539 C9.16694336 13.11352539 12.46694336 13.11352539 15.86694336 13.11352539 C15.96459961 19.26586914 15.96459961 19.26586914 15.86694336 21.11352539 C14.86694336 22.11352539 14.86694336 22.11352539 12.36303711 22.21118164 C11.35370117 22.19958008 10.34436523 22.18797852 9.30444336 22.17602539 C8.2925293 22.16700195 7.28061523 22.15797852 6.23803711 22.14868164 C5.0643457 22.1312793 5.0643457 22.1312793 3.86694336 22.11352539 C3.86694336 23.76352539 3.86694336 25.41352539 3.86694336 27.11352539 C7.82694336 27.11352539 11.78694336 27.11352539 15.86694336 27.11352539 C15.53694336 29.75352539 15.20694336 32.39352539 14.86694336 35.11352539 C7.27694336 35.11352539 -0.31305664 35.11352539 -8.13305664 35.11352539 C-7.16265342 26.23060359 -6.11063275 17.41625632 -4.57055664 8.61352539 C-4.44382568 7.8781958 -4.31709473 7.14286621 -4.18652344 6.38525391 C-3.06552419 0.16315311 -3.06552419 0.16315311 0 0 Z " fill="#EEEEEE" transform="translate(22.133056640625,20.886474609375)"/>
<path d="M0 0 C2.78288324 2.51138244 3.81566886 3.66132555 4.5625 7.3125 C4.2325 9.9525 3.9025 12.5925 3.5625 15.3125 C-2.3775 15.3125 -8.3175 15.3125 -14.4375 15.3125 C-14.1075 15.9725 -13.7775 16.6325 -13.4375 17.3125 C-12.73238281 17.14878906 -12.02726562 16.98507813 -11.30078125 16.81640625 C-8.34091312 16.29550176 -5.62688727 16.21383268 -2.625 16.25 C-1.16126953 16.26353516 -1.16126953 16.26353516 0.33203125 16.27734375 C1.43611328 16.29474609 1.43611328 16.29474609 2.5625 16.3125 C0.98802722 20.6949035 -0.55036824 22.65787343 -4.4375 25.3125 C-9.05820066 26.85273355 -13.61768078 26.9678263 -18.4375 26.3125 C-21.5625 23.875 -21.5625 23.875 -23.4375 21.3125 C-23.7675 20.9825 -24.0975 20.6525 -24.4375 20.3125 C-25.29283508 14.04411579 -24.71851664 9.18034936 -20.98046875 4.0078125 C-15.2124924 -2.32966024 -7.71180735 -3.78579634 0 0 Z " fill="#EBEBEB" transform="translate(410.4375,29.6875)"/>
<path d="M0 0 C7.26 0 14.52 0 22 0 C22 7.89168766 22 7.89168766 19.3125 10.6875 C18.76980469 11.25984375 18.22710937 11.8321875 17.66796875 12.421875 C15.54727463 14.4283397 13.35191478 16.27065089 11 18 C13.64 18.33 16.28 18.66 19 19 C18.67 21.97 18.34 24.94 18 28 C10.41 28 2.82 28 -5 28 C-3.875 19 -3.875 19 1.5625 14.5 C2.08263672 14.05914062 2.60277344 13.61828125 3.13867188 13.1640625 C4.41030082 12.09076101 5.70311118 11.04263879 7 10 C4.36 9.67 1.72 9.34 -1 9 C-0.67 6.03 -0.34 3.06 0 0 Z " fill="#F1F1F1" transform="translate(364,28)"/>
<path d="M0 0 C2.625 1.6875 2.625 1.6875 4.625 4.6875 C4.625 6.0075 4.625 7.3275 4.625 8.6875 C-4.78502278 9.0565205 -4.78502278 9.0565205 -9.375 6.6875 C-9.375 7.3475 -9.375 8.0075 -9.375 8.6875 C-8.68792969 8.86925781 -8.00085938 9.05101562 -7.29296875 9.23828125 C-6.39191406 9.48964844 -5.49085938 9.74101563 -4.5625 10 C-3.66917969 10.24363281 -2.77585938 10.48726562 -1.85546875 10.73828125 C0.73135939 11.72820131 1.97639995 12.4822298 3.625 14.6875 C4.0625 18.125 4.0625 18.125 3.625 21.6875 C1.75791495 24.05247439 0.30438569 25.34780715 -2.375 26.6875 C-4.47448601 26.86221848 -6.58124408 26.95467852 -8.6875 27 C-9.81800781 27.03738281 -10.94851562 27.07476562 -12.11328125 27.11328125 C-16.03619299 26.60118858 -17.6529803 25.51576954 -20.375 22.6875 C-20.6875 19.4375 -20.6875 19.4375 -20.375 16.6875 C-14.87133208 16.36375483 -10.93827794 16.15463966 -6.375 19.6875 C-7.77538461 16.88673078 -9.57528243 16.45725197 -12.375 15.125 C-17.29053134 12.77196866 -17.29053134 12.77196866 -18.375 11.6875 C-18.96563136 4.48179735 -18.96563136 4.48179735 -16.5625 1.25 C-11.44143278 -2.40790515 -5.63708358 -2.19219917 0 0 Z " fill="#9C9C9C" transform="translate(183.375,29.3125)"/>
<path d="M0 0 C3.3 0 6.6 0 10 0 C10 1.98 10 3.96 10 6 C11.32 6 12.64 6 14 6 C13.67 8.97 13.34 11.94 13 15 C11.35 15 9.7 15 8 15 C7.67 18.3 7.34 21.6 7 25 C8.32 25 9.64 25 11 25 C10.67 27.97 10.34 30.94 10 34 C1.1595092 34.60736196 1.1595092 34.60736196 -2.625 32.625 C-5.39210887 27.34233761 -4.50343401 20.63787754 -3 15 C-3.99 15 -4.98 15 -6 15 C-5.64718163 9.53131524 -5.64718163 9.53131524 -5 7 C-3 5.8125 -3 5.8125 -1 5 C-0.18828772 2.44480079 -0.18828772 2.44480079 0 0 Z " fill="#F2F2F2" transform="translate(267,22)"/>
<path d="M0 0 C3.63 0 7.26 0 11 0 C10.67 1.98 10.34 3.96 10 6 C11.65 6 13.3 6 15 6 C14.34 8.97 13.68 11.94 13 15 C11.35 15 9.7 15 8 15 C7.67 18.3 7.34 21.6 7 25 C8.32 25 9.64 25 11 25 C10.67 27.97 10.34 30.94 10 34 C2.01554404 34.47668394 2.01554404 34.47668394 -2.0625 32.5625 C-4.91039221 28.79593288 -4.50320225 25.56128487 -4 21 C-3.5 17.9375 -3.5 17.9375 -3 16 C-3.66 15.67 -4.32 15.34 -5 15 C-4.67 12.03 -4.34 9.06 -4 6 C-3.01 5.67 -2.02 5.34 -1 5 C-0.67 3.35 -0.34 1.7 0 0 Z " fill="#F2F2F2" transform="translate(47,22)"/>
<path d="M0 0 C1.37478516 0.01740234 1.37478516 0.01740234 2.77734375 0.03515625 C3.69644531 0.04417969 4.61554688 0.05320312 5.5625 0.0625 C6.27277344 0.07410156 6.98304688 0.08570312 7.71484375 0.09765625 C8.04484375 0.75765625 8.37484375 1.41765625 8.71484375 2.09765625 C9.31296875 1.76765625 9.91109375 1.43765625 10.52734375 1.09765625 C12.71484375 0.09765625 12.71484375 0.09765625 15.71484375 0.09765625 C15.83984375 7.72265625 15.83984375 7.72265625 14.71484375 11.09765625 C12.8671875 11.828125 12.8671875 11.828125 10.65234375 12.28515625 C9.91886719 12.44371094 9.18539063 12.60226563 8.4296875 12.765625 C7.86378906 12.87519531 7.29789062 12.98476563 6.71484375 13.09765625 C6.42609375 14.27328125 6.13734375 15.44890625 5.83984375 16.66015625 C4.88170654 20.49954895 3.82278864 24.29898805 2.71484375 28.09765625 C-0.58515625 28.09765625 -3.88515625 28.09765625 -7.28515625 28.09765625 C-6.82433344 21.46180777 -6.0016622 15.00560811 -4.78515625 8.47265625 C-4.65455811 7.76173828 -4.52395996 7.05082031 -4.3894043 6.31835938 C-3.20372567 0.13691135 -3.20372567 0.13691135 0 0 Z " fill="#F0F0F0" transform="translate(422.28515625,27.90234375)"/>
<path d="M0 0 C3.3 0 6.6 0 10 0 C9.33265227 9.47633783 7.7382844 18.67448685 6 28 C2.37 28 -1.26 28 -5 28 C-4.38277416 18.43299944 -2.1798659 9.30752043 0 0 Z " fill="#EFEFEF" transform="translate(351,28)"/>
<path d="M0 0 C3.3 0 6.6 0 10 0 C9.33265227 9.47633783 7.7382844 18.67448685 6 28 C2.37 28 -1.26 28 -5 28 C-4.38277416 18.43299944 -2.1798659 9.30752043 0 0 Z " fill="#EFEFEF" transform="translate(285,28)"/>
<path d="M0 0 C2 1 2 1 3 3 C2.93135672 7.32452668 2.7682384 9.8476424 0.375 13.4375 C-2.80146174 15.52727746 -5.21739165 15.9312253 -9 16 C-10.9375 15 -10.9375 15 -12 13 C-12.55307674 8.02230936 -12.05588788 4.99616107 -9 1 C-5.95016004 -0.52491998 -3.3576631 -0.23562548 0 0 Z " fill="#111111" transform="translate(214,31)"/>
<path d="M0 0 C2 2 2 2 2.4375 4.9375 C2 8 2 8 -0.1875 9.9375 C-3.38991006 11.14729936 -4.80123853 11.12388916 -8 10 C-8.66 9.34 -9.32 8.68 -10 8 C-9.84076801 4.89497628 -9.42490203 3.44007711 -7.25 1.1875 C-4.57784535 -0.22280384 -2.98160554 -0.39231652 0 0 Z " fill="#ECECEC" transform="translate(361,16)"/>
<path d="M0 0 C2 2 2 2 2.4375 4.9375 C2 8 2 8 -0.1875 9.9375 C-3.38991006 11.14729936 -4.80123853 11.12388916 -8 10 C-8.66 9.34 -9.32 8.68 -10 8 C-9.84076801 4.89497628 -9.42490203 3.44007711 -7.25 1.1875 C-4.57784535 -0.22280384 -2.98160554 -0.39231652 0 0 Z " fill="#ECECEC" transform="translate(295,16)"/>
<path d="M0 0 C1.1446875 0.3403125 1.1446875 0.3403125 2.3125 0.6875 C3.23304342 3.70018757 3.59111489 5.11479162 2.1875 8 C0.3125 9.6875 0.3125 9.6875 -2.3125 10 C-4.6875 9.6875 -4.6875 9.6875 -5.6875 8.6875 C-6.14441383 3.43299098 -6.14441383 3.43299098 -4.5 0.75 C-2.6875 -0.3125 -2.6875 -0.3125 0 0 Z " fill="#0F0F0F" transform="translate(146.6875,37.3125)"/>
<path d="M0 0 C0.598125 0.20625 1.19625 0.4125 1.8125 0.625 C2.73304342 3.63768757 3.09111489 5.05229162 1.6875 7.9375 C-0.1875 9.625 -0.1875 9.625 -2.8125 9.9375 C-5.1875 9.625 -5.1875 9.625 -6.1875 8.625 C-5.9375 5.1875 -5.9375 5.1875 -5.1875 1.625 C-2.1875 -0.375 -2.1875 -0.375 0 0 Z " fill="#121212" transform="translate(246.1875,37.375)"/>
<path d="M0 0 C5.28 0 10.56 0 16 0 C16 0.33 16 0.66 16 1 C15.00419922 1.09087891 15.00419922 1.09087891 13.98828125 1.18359375 C7.45091919 1.79863507 7.45091919 1.79863507 1 3 C0.67 2.01 0.34 1.02 0 0 Z " fill="#161616" transform="translate(396,45)"/>
<path d="M0 0 C0.99 0.2165625 0.99 0.2165625 2 0.4375 C5.65599551 1.12299916 9.30622195 1.56175515 13 2 C13 2.33 13 2.66 13 3 C4.57142857 4.42857143 4.57142857 4.42857143 0 2 C0 1.34 0 0.68 0 0 Z " fill="#202020" transform="translate(174,36)"/>
</svg>
